<svg xmlns="http://www.w3.org/2000/svg" viewBox="0 0 1200 360" role="img" aria-labelledby="title desc">
  <title id="title">Hao TS/JS Runtime horizontal logo</title>
  <desc id="desc">The Hao core mark beside the Hao wordmark and runtime descriptor.</desc>
  <defs>
    <linearGradient id="g" x1="68" y1="34" x2="310" y2="326" gradientUnits="userSpaceOnUse">
      <stop offset="0" stop-color="#00DFFF"/>
      <stop offset="0.55" stop-color="#267BFF"/>
      <stop offset="1" stop-color="#7B61FF"/>
    </linearGradient>
  </defs>
  <g transform="translate(18 6) scale(.68)">
    <path d="M256 62 397 143" fill="none" stroke="url(#g)" stroke-width="34" stroke-linecap="round" stroke-linejoin="round"/>
    <path d="M421 220v151L256 466 91 371V181L256 86" fill="none" stroke="url(#g)" stroke-width="34" stroke-linecap="round" stroke-linejoin="round"/>
    <circle cx="421" cy="181" r="23" fill="url(#g)"/>
    <path d="M174 352V160h46v82c18-23 42-34 72-34 55 0 88 37 88 99v45h-46v-43c0-40-18-60-52-60-38 0-62 27-62 70v33h-46Z" fill="#0B1020"/>
  </g>
  <text x="395" y="208" fill="#0B1020" font-family="Inter, Arial, sans-serif" font-size="168" font-weight="600" letter-spacing="-7">hao</text>
  <text x="404" y="281" fill="#667085" font-family="Inter, Arial, sans-serif" font-size="33" font-weight="500" letter-spacing="11">TS / JS RUNTIME</text>
</svg>
